<svg width="267" height="235" viewBox="0 0 267 235" fill="none" xmlns="http://www.w3.org/2000/svg">
<path d="M184.74 51.0208C185.974 52.25 187.172 53.5052 188.344 54.7917C189.51 56.0781 190.651 57.3906 191.755 58.7344C192.859 60.0729 193.927 61.4427 194.969 62.8333C196.005 64.2292 197.005 65.6458 197.974 67.0885C198.943 68.5313 199.875 70 200.771 71.4844C201.667 72.974 202.521 74.4844 203.344 76.0156C204.167 77.5469 204.948 79.0938 205.693 80.6615C206.437 82.2344 207.141 83.8177 207.807 85.4219C208.474 87.026 209.104 88.6458 209.687 90.276C210.276 91.9115 210.823 93.5573 211.328 95.2188C211.833 96.8802 212.297 98.5521 212.719 100.234C213.141 101.917 213.526 103.609 213.865 105.313C214.203 107.016 214.5 108.724 214.755 110.443C215.016 112.156 215.224 113.88 215.396 115.604C215.568 117.333 215.698 119.063 215.781 120.797C215.865 122.531 215.911 124.266 215.911 126C215.911 127.734 215.865 129.469 215.781 131.203C215.698 132.938 215.568 134.667 215.396 136.391C215.229 138.12 215.016 139.839 214.76 141.557C214.5 143.276 214.203 144.984 213.865 146.688C213.526 148.385 213.146 150.078 212.719 151.766C212.297 153.448 211.833 155.12 211.328 156.781C210.823 158.438 210.276 160.089 209.687 161.719C209.104 163.354 208.474 164.974 207.812 166.578C207.146 168.177 206.437 169.766 205.693 171.333C204.948 172.901 204.167 174.453 203.344 175.984C202.526 177.516 201.667 179.021 200.771 180.51C199.875 182 198.943 183.464 197.974 184.906C197.01 186.349 196.005 187.771 194.969 189.161C193.932 190.557 192.859 191.927 191.755 193.266C190.651 194.609 189.516 195.922 188.344 197.208C187.177 198.495 185.974 199.75 184.745 200.979C183.51 202.203 182.25 203.401 180.958 204.568C179.672 205.729 178.349 206.865 177.005 207.964C175.661 209.068 174.286 210.135 172.885 211.167C171.49 212.203 170.068 213.198 168.62 214.161C167.172 215.13 165.698 216.057 164.203 216.948C162.713 217.839 161.198 218.698 159.661 219.516C158.125 220.333 156.568 221.109 154.995 221.854C153.422 222.594 151.828 223.297 150.219 223.964C148.609 224.625 146.984 225.25 145.349 225.833C143.708 226.422 142.052 226.964 140.385 227.469C138.719 227.974 137.042 228.432 135.354 228.854C133.667 229.276 131.963 229.656 130.255 229.995C128.547 230.333 126.833 230.63 125.109 230.885C123.391 231.141 121.661 231.354 119.927 231.526C118.193 231.693 116.458 231.823 114.719 231.906C112.979 231.99 111.24 232.036 109.495 232.036C107.755 232.036 106.016 231.995 104.276 231.906C102.536 231.823 100.802 231.693 99.0676 231.526C97.3333 231.354 95.6041 231.141 93.8853 230.885C92.1614 230.63 90.4426 230.339 88.7343 230C87.0312 229.661 85.328 229.281 83.6405 228.859C81.953 228.438 80.2708 227.974 78.6041 227.469C76.9426 226.964 75.2864 226.422 73.6458 225.839C72.0051 225.25 70.3853 224.63 68.776 223.964C67.1666 223.302 65.5728 222.599 63.9999 221.854C62.427 221.115 60.8697 220.333 59.3333 219.516C57.7968 218.698 56.2812 217.844 54.7916 216.948C53.2968 216.057 51.8228 215.13 50.3749 214.167C48.927 213.203 47.5051 212.203 46.1041 211.167C44.7083 210.135 43.3333 209.068 41.9895 207.969C40.6405 206.865 39.3228 205.734 38.0312 204.568C36.7447 203.401 35.4843 202.208 34.2499 200.979C33.0208 199.75 31.8176 198.495 30.651 197.208C29.4791 195.922 28.3437 194.609 27.2395 193.271C26.1301 191.927 25.0624 190.563 24.026 189.167C22.9843 187.771 21.9843 186.354 21.0155 184.911C20.0468 183.469 19.1197 182.005 18.2239 180.516C17.328 179.026 16.4687 177.516 15.6458 175.984C14.828 174.458 14.0416 172.906 13.2968 171.339C12.552 169.771 11.8489 168.182 11.1822 166.578C10.5155 164.979 9.89054 163.359 9.302 161.724C8.71346 160.089 8.17179 158.443 7.66138 156.781C7.15617 155.12 6.69263 153.448 6.27075 151.766C5.84888 150.083 5.46867 148.391 5.12492 146.688C4.78638 144.984 4.4895 143.276 4.23429 141.563C3.97909 139.844 3.76554 138.125 3.59367 136.396C3.42179 134.667 3.29679 132.938 3.20825 131.203C3.12492 129.474 3.08325 127.74 3.08325 126.005C3.08325 124.266 3.12492 122.531 3.20825 120.802C3.29679 119.068 3.42179 117.339 3.59367 115.609C3.76554 113.88 3.97909 112.161 4.23429 110.443C4.4895 108.729 4.78638 107.021 5.12492 105.318C5.46346 103.615 5.84888 101.922 6.27075 100.24C6.69263 98.5573 7.15617 96.8854 7.66138 95.224C8.16659 93.5625 8.71346 91.9167 9.302 90.2813C9.88534 88.6458 10.5155 87.026 11.1822 85.4271C11.8489 83.8229 12.552 82.2344 13.2968 80.6667C14.0416 79.099 14.8228 77.5469 15.6458 76.0208C16.4687 74.4896 17.3228 72.9792 18.2187 71.4896C19.1145 70 20.0468 68.5365 21.0155 67.0938C21.9843 65.651 22.9843 64.2292 24.0208 62.8385C25.0572 61.4427 26.1301 60.0781 27.2343 58.7344C28.3385 57.3958 29.4791 56.0781 30.6458 54.7917C31.8176 53.5104 33.0155 52.25 34.2499 51.026C35.4791 49.7969 36.7395 48.599 38.0312 47.4375C39.3228 46.2708 40.6405 45.1354 41.9843 44.0365C43.3333 42.9375 44.703 41.8698 46.1041 40.8333C47.4999 39.8021 48.927 38.8021 50.3749 37.8385C51.8228 36.875 53.2916 35.9479 54.7864 35.0521C56.2812 34.1615 57.7968 33.3073 59.328 32.4896C60.8645 31.6719 62.4218 30.8906 63.9947 30.1458C65.5676 29.4063 67.1614 28.7031 68.7708 28.0365C70.3801 27.375 72.0051 26.75 73.6458 26.1667C75.2812 25.5833 76.9374 25.0365 78.6041 24.5313C80.2708 24.0313 81.9478 23.5677 83.6353 23.1458C85.328 22.724 87.026 22.3437 88.7343 22.0052C90.4426 21.6667 92.1562 21.3698 93.8801 21.1146C95.6041 20.8594 97.328 20.6458 99.0624 20.4792C100.797 20.3073 102.531 20.1823 104.271 20.0938C106.01 20.0104 107.75 19.9688 109.495 19.9688C111.234 19.9688 112.974 20.0104 114.713 20.0938C116.453 20.1771 118.193 20.3073 119.922 20.4792C121.656 20.6458 123.385 20.8594 125.109 21.1146C126.828 21.3698 128.547 21.6667 130.255 22.0052C131.963 22.3437 133.661 22.724 135.349 23.1458C137.042 23.5677 138.719 24.026 140.385 24.5313C142.052 25.0365 143.703 25.5781 145.344 26.1667C146.984 26.75 148.609 27.375 150.219 28.0365C151.828 28.7031 153.417 29.4063 154.99 30.1458C156.568 30.8906 158.12 31.6667 159.656 32.4844C161.193 33.3021 162.708 34.1615 164.203 35.0521C165.698 35.9427 167.167 36.8698 168.615 37.8333C170.062 38.8021 171.484 39.7969 172.885 40.8333C174.281 41.8646 175.656 42.9323 177 44.0365C178.349 45.1354 179.667 46.2656 180.958 47.4323C182.25 48.599 183.51 49.7969 184.74 51.0208Z" fill="#FF5374"/>
<path d="M109.667 234.287C104.432 234.287 99.172 233.912 93.9116 233.151C79.3959 231.052 65.7241 226.188 53.2761 218.682C41.2553 211.438 30.8803 202.047 22.4376 190.781C13.9949 179.516 7.90635 166.938 4.34906 153.396C0.66156 139.375 -0.140523 124.932 1.96364 110.469C4.06781 96.0053 8.95323 82.3855 16.4845 69.9792C23.7553 58.0053 33.1772 47.6667 44.4845 39.2552C55.7918 30.8386 68.4116 24.7761 82.0053 21.2292C96.073 17.5573 110.568 16.7552 125.083 18.8542C139.604 20.948 153.271 25.8177 165.719 33.3177C177.74 40.5677 188.115 49.9532 196.557 61.2188C205 72.4844 211.089 85.0625 214.646 98.6042C218.333 112.625 219.136 127.068 217.031 141.531C214.927 156 210.042 169.62 202.511 182.021C195.24 194 185.818 204.339 174.511 212.75C163.208 221.162 150.583 227.229 136.99 230.776C128.021 233.115 118.88 234.287 109.667 234.287ZM109.427 22.1927C58.547 22.1927 13.9116 59.4896 6.40114 111.109C2.41156 138.547 9.38031 165.896 26.0314 188.109C42.6824 210.323 67.0157 224.75 94.5522 228.729C99.5939 229.453 104.615 229.807 109.568 229.807C160.448 229.813 205.083 192.51 212.594 140.891C216.583 113.453 209.615 86.1094 192.964 63.8907C176.313 41.6771 151.979 27.25 124.443 23.2761C119.401 22.5469 114.38 22.1927 109.427 22.1927Z" fill="#535971"/>
<path d="M171.75 107.036C174.479 115.911 175.328 125.51 173.906 135.302C168.75 170.75 135.734 195.318 100.162 190.177C64.5886 185.042 39.9323 152.141 45.0886 116.698C50.2448 81.2552 83.2605 56.6875 118.833 61.8229C129.708 63.3958 139.568 67.5625 147.865 73.6041L171.75 107.036Z" fill="#EFEFEF"/>
<path d="M109.604 193.094C106.359 193.094 103.099 192.859 99.8385 192.391C90.8437 191.088 82.375 188.073 74.6614 183.427C67.2135 178.937 60.7864 173.12 55.5573 166.141C50.3229 159.161 46.5521 151.365 44.3489 142.974C42.0625 134.286 41.5677 125.338 42.8698 116.375C44.1771 107.417 47.2031 98.9739 51.8698 91.2916C56.375 83.8697 62.2083 77.4635 69.2135 72.2499C76.2187 67.0416 84.0416 63.2812 92.4635 61.0833C101.182 58.8072 110.161 58.3124 119.156 59.6145C124.672 60.4114 130.062 61.8749 135.172 63.9687C140.13 66.0052 144.849 68.6406 149.187 71.7968C150.187 72.526 150.401 73.9218 149.672 74.9218C148.943 75.9166 147.536 76.1354 146.542 75.4062C138.333 69.4322 128.641 65.4999 118.51 64.0364C115.474 63.5937 112.443 63.3802 109.458 63.3802C78.7604 63.3802 51.8385 85.8802 47.3073 117.021C44.901 133.568 49.1041 150.068 59.151 163.463C69.1927 176.865 83.8698 185.568 100.484 187.969C103.526 188.406 106.552 188.62 109.536 188.62C140.234 188.625 167.156 166.12 171.687 134.984C173.031 125.74 172.333 116.557 169.604 107.693C169.245 106.516 169.911 105.266 171.094 104.901C172.276 104.542 173.531 105.203 173.896 106.385C176.812 115.88 177.568 125.719 176.125 135.625C174.823 144.588 171.792 153.026 167.13 160.708C162.62 168.13 156.786 174.536 149.781 179.75C142.776 184.963 134.953 188.719 126.531 190.917C120.974 192.37 115.307 193.094 109.604 193.094Z" fill="#535971"/>
<path d="M135.911 124.448C136.099 126.547 136.047 128.708 135.729 130.885C133.531 146.005 119.448 156.484 104.276 154.292C89.1042 152.099 78.5886 138.068 80.7917 122.953C82.9896 107.833 97.0677 97.3593 112.24 99.5468C114.229 99.8333 116.141 100.328 117.948 100.995L135.911 124.448Z" fill="#FF5374"/>
<path d="M108.323 156.818C106.875 156.818 105.417 156.713 103.953 156.5C96.0261 155.359 89.0156 151.203 84.224 144.807C79.4271 138.406 77.4219 130.531 78.5729 122.63C79.7188 114.729 83.8906 107.745 90.3073 102.969C96.7292 98.1926 104.63 96.1926 112.563 97.3385C114.672 97.6406 116.75 98.1666 118.729 98.901C119.891 99.3333 120.484 100.62 120.052 101.776C119.62 102.932 118.328 103.521 117.167 103.088C115.484 102.469 113.719 102.021 111.917 101.76C97.9948 99.7499 85.0261 109.401 83.0104 123.271C82.0313 129.995 83.7396 136.693 87.8177 142.13C91.8958 147.573 97.8542 151.104 104.599 152.078C105.833 152.26 107.063 152.344 108.276 152.344C120.74 152.349 131.672 143.208 133.51 130.568C133.797 128.599 133.854 126.604 133.677 124.646C133.568 123.417 134.479 122.328 135.714 122.219C136.948 122.109 138.036 123.021 138.146 124.25C138.349 126.557 138.281 128.896 137.948 131.208C136.797 139.109 132.63 146.094 126.208 150.87C120.969 154.766 114.745 156.818 108.323 156.818Z" fill="#535971"/>
<path d="M232.125 38.9531L264.656 49.2395L208.448 89.2239L172.469 80.052L178.318 42.7916L237.323 2.91663L232.125 38.9531Z" fill="#FCEC7A"/>
<mask id="mask0_33616_22" style="mask-type:luminance" maskUnits="userSpaceOnUse" x="169" y="0" width="98" height="93">
<path d="M169 0.666626H267V92.6666H169V0.666626Z" fill="white"/>
</mask>
<g mask="url(#mask0_33616_22)">
<path d="M208.448 91.4583C208.26 91.4583 208.078 91.4375 207.891 91.3906L171.917 82.2135C170.797 81.9271 170.078 80.8437 170.255 79.7031L176.104 42.4427C176.198 41.8333 176.547 41.2865 177.057 40.9427L236.063 1.0677C236.797 0.5677 237.755 0.552074 238.51 1.02083C239.26 1.48958 239.667 2.35937 239.542 3.23437L234.615 37.3958L265.333 47.1094C266.141 47.3646 266.74 48.0521 266.87 48.8906C267.005 49.7239 266.651 50.5625 265.958 51.0573L209.75 91.0417C209.37 91.3177 208.912 91.4583 208.448 91.4583ZM175 78.3906L207.995 86.8021L259.703 50.0156L231.448 41.0781C230.401 40.75 229.75 39.7135 229.906 38.6354L234.38 7.60416L180.38 44.0937L175 78.3906Z" fill="#535971"/>
</g>
<path d="M108.26 129.156C107.573 129.156 106.891 128.839 106.448 128.24C105.719 127.245 105.937 125.849 106.932 125.12L210.26 49.698C211.255 48.9688 212.661 49.1876 213.391 50.1823C214.125 51.1771 213.906 52.573 212.906 53.3021L109.583 128.724C109.182 129.016 108.719 129.156 108.26 129.156Z" fill="#535971"/>
</svg>
